<mxfile host="Electron" modified="2025-05-25T18:25:20.633Z" agent="Mozilla/5.0 (Windows NT 10.0; Win64; x64) AppleWebKit/537.36 (KHTML, like Gecko) draw.io/23.0.2 Chrome/120.0.6099.109 Electron/28.1.0 Safari/537.36" etag="UsGtH-OqxYf19Z6QmoMm" version="23.0.2" type="device">
  <diagram name="Página-1" id="LA6jXSLFu4TXpsBDW3LK">
    <mxGraphModel dx="1012" dy="690" grid="1" gridSize="10" guides="1" tooltips="1" connect="1" arrows="1" fold="1" page="1" pageScale="1" pageWidth="827" pageHeight="1169" math="0" shadow="0">
      <root>
        <mxCell id="0" />
        <mxCell id="1" parent="0" />
        <mxCell id="MIbKjhBUD7mymWlkARDE-1" value="" style="endArrow=none;html=1;rounded=0;" edge="1" parent="1">
          <mxGeometry width="50" height="50" relative="1" as="geometry">
            <mxPoint x="220" y="940" as="sourcePoint" />
            <mxPoint x="220" y="280" as="targetPoint" />
          </mxGeometry>
        </mxCell>
        <mxCell id="MIbKjhBUD7mymWlkARDE-2" value="" style="endArrow=none;html=1;rounded=0;" edge="1" parent="1">
          <mxGeometry width="50" height="50" relative="1" as="geometry">
            <mxPoint x="750" y="940" as="sourcePoint" />
            <mxPoint x="750" y="280" as="targetPoint" />
          </mxGeometry>
        </mxCell>
        <mxCell id="MIbKjhBUD7mymWlkARDE-3" value="" style="endArrow=none;html=1;rounded=0;" edge="1" parent="1">
          <mxGeometry width="50" height="50" relative="1" as="geometry">
            <mxPoint x="220" y="280" as="sourcePoint" />
            <mxPoint x="750" y="280" as="targetPoint" />
          </mxGeometry>
        </mxCell>
        <mxCell id="MIbKjhBUD7mymWlkARDE-4" value="" style="endArrow=none;html=1;rounded=0;" edge="1" parent="1">
          <mxGeometry width="50" height="50" relative="1" as="geometry">
            <mxPoint x="219" y="940" as="sourcePoint" />
            <mxPoint x="750" y="940" as="targetPoint" />
          </mxGeometry>
        </mxCell>
        <mxCell id="MIbKjhBUD7mymWlkARDE-5" value="Distritotaku" style="text;html=1;align=center;verticalAlign=middle;resizable=0;points=[];autosize=1;strokeColor=none;fillColor=none;" vertex="1" parent="1">
          <mxGeometry x="230" y="290" width="80" height="30" as="geometry" />
        </mxCell>
        <mxCell id="MIbKjhBUD7mymWlkARDE-6" value="Cliente" style="shape=umlActor;verticalLabelPosition=bottom;verticalAlign=top;html=1;outlineConnect=0;" vertex="1" parent="1">
          <mxGeometry x="120" y="360" width="30" height="60" as="geometry" />
        </mxCell>
        <mxCell id="MIbKjhBUD7mymWlkARDE-7" value="&amp;lt;&amp;lt;Include&amp;gt;&amp;gt;" style="endArrow=open;endSize=12;dashed=1;html=1;rounded=0;" edge="1" parent="1">
          <mxGeometry x="-0.2162" width="160" relative="1" as="geometry">
            <mxPoint x="349.16999999999996" y="1050" as="sourcePoint" />
            <mxPoint x="349.16999999999996" y="1124" as="targetPoint" />
            <mxPoint as="offset" />
          </mxGeometry>
        </mxCell>
        <mxCell id="MIbKjhBUD7mymWlkARDE-8" value="&amp;lt;&amp;lt;Extends&amp;gt;&amp;gt;" style="endArrow=open;endSize=12;dashed=1;html=1;rounded=0;" edge="1" parent="1">
          <mxGeometry width="160" relative="1" as="geometry">
            <mxPoint x="309.16999999999996" y="1070" as="sourcePoint" />
            <mxPoint x="189.17" y="1070" as="targetPoint" />
            <mxPoint as="offset" />
          </mxGeometry>
        </mxCell>
        <mxCell id="MIbKjhBUD7mymWlkARDE-9" value="" style="ellipse;whiteSpace=wrap;html=1;" vertex="1" parent="1">
          <mxGeometry x="9.169999999999987" y="1070" width="150" height="50" as="geometry" />
        </mxCell>
        <mxCell id="MIbKjhBUD7mymWlkARDE-10" value="" style="ellipse;whiteSpace=wrap;html=1;" vertex="1" parent="1">
          <mxGeometry x="159.17" y="1110" width="120" height="40" as="geometry" />
        </mxCell>
        <mxCell id="MIbKjhBUD7mymWlkARDE-11" value="Administrador" style="shape=umlActor;verticalLabelPosition=bottom;verticalAlign=top;html=1;outlineConnect=0;" vertex="1" parent="1">
          <mxGeometry x="120" y="620" width="30" height="60" as="geometry" />
        </mxCell>
        <mxCell id="MIbKjhBUD7mymWlkARDE-15" value="Iniciar Sesion" style="ellipse;whiteSpace=wrap;html=1;" vertex="1" parent="1">
          <mxGeometry x="520" y="335" width="120" height="40" as="geometry" />
        </mxCell>
        <mxCell id="MIbKjhBUD7mymWlkARDE-16" value="Registrarse" style="ellipse;whiteSpace=wrap;html=1;" vertex="1" parent="1">
          <mxGeometry x="520" y="405" width="120" height="40" as="geometry" />
        </mxCell>
        <mxCell id="MIbKjhBUD7mymWlkARDE-18" value="Añadir al carrito" style="ellipse;whiteSpace=wrap;html=1;" vertex="1" parent="1">
          <mxGeometry x="330" y="450" width="120" height="40" as="geometry" />
        </mxCell>
        <mxCell id="MIbKjhBUD7mymWlkARDE-19" value="Ver historial de compras" style="ellipse;whiteSpace=wrap;html=1;" vertex="1" parent="1">
          <mxGeometry x="330" y="515" width="120" height="40" as="geometry" />
        </mxCell>
        <mxCell id="MIbKjhBUD7mymWlkARDE-20" value="Navegar por la&lt;br&gt;tienda" style="ellipse;whiteSpace=wrap;html=1;" vertex="1" parent="1">
          <mxGeometry x="330" y="580" width="120" height="40" as="geometry" />
        </mxCell>
        <mxCell id="MIbKjhBUD7mymWlkARDE-27" value="&amp;lt;&amp;lt;Include&amp;gt;&amp;gt;" style="endArrow=open;endSize=12;dashed=1;html=1;rounded=0;" edge="1" parent="1" source="MIbKjhBUD7mymWlkARDE-15" target="MIbKjhBUD7mymWlkARDE-18">
          <mxGeometry x="0.2941" width="160" relative="1" as="geometry">
            <mxPoint x="630" y="469.58" as="sourcePoint" />
            <mxPoint x="510" y="469.58" as="targetPoint" />
            <mxPoint as="offset" />
            <Array as="points">
              <mxPoint x="660" y="400" />
              <mxPoint x="660" y="470" />
            </Array>
          </mxGeometry>
        </mxCell>
        <mxCell id="MIbKjhBUD7mymWlkARDE-28" value="&amp;lt;&amp;lt;Include&amp;gt;&amp;gt;" style="endArrow=open;endSize=12;dashed=1;html=1;rounded=0;" edge="1" parent="1" source="MIbKjhBUD7mymWlkARDE-15" target="MIbKjhBUD7mymWlkARDE-19">
          <mxGeometry x="0.2867" width="160" relative="1" as="geometry">
            <mxPoint x="540" y="481" as="sourcePoint" />
            <mxPoint x="540" y="555" as="targetPoint" />
            <mxPoint as="offset" />
            <Array as="points">
              <mxPoint x="670" y="380" />
              <mxPoint x="670" y="535" />
            </Array>
          </mxGeometry>
        </mxCell>
        <mxCell id="MIbKjhBUD7mymWlkARDE-29" value="Cambiar Idioma" style="ellipse;whiteSpace=wrap;html=1;" vertex="1" parent="1">
          <mxGeometry x="570" y="580" width="120" height="40" as="geometry" />
        </mxCell>
        <mxCell id="MIbKjhBUD7mymWlkARDE-30" value="&amp;lt;&amp;lt;Extends&amp;gt;&amp;gt;" style="endArrow=open;endSize=12;dashed=1;html=1;rounded=0;" edge="1" parent="1" source="MIbKjhBUD7mymWlkARDE-29" target="MIbKjhBUD7mymWlkARDE-20">
          <mxGeometry width="160" relative="1" as="geometry">
            <mxPoint x="560" y="630" as="sourcePoint" />
            <mxPoint x="440" y="630" as="targetPoint" />
            <mxPoint as="offset" />
          </mxGeometry>
        </mxCell>
        <mxCell id="MIbKjhBUD7mymWlkARDE-33" value="" style="endArrow=classic;html=1;rounded=0;" edge="1" parent="1" source="MIbKjhBUD7mymWlkARDE-6" target="MIbKjhBUD7mymWlkARDE-15">
          <mxGeometry width="50" height="50" relative="1" as="geometry">
            <mxPoint x="190" y="400" as="sourcePoint" />
            <mxPoint x="240" y="350" as="targetPoint" />
          </mxGeometry>
        </mxCell>
        <mxCell id="MIbKjhBUD7mymWlkARDE-34" value="" style="endArrow=classic;html=1;rounded=0;" edge="1" parent="1" source="MIbKjhBUD7mymWlkARDE-6" target="MIbKjhBUD7mymWlkARDE-16">
          <mxGeometry width="50" height="50" relative="1" as="geometry">
            <mxPoint x="110" y="530" as="sourcePoint" />
            <mxPoint x="160" y="480" as="targetPoint" />
          </mxGeometry>
        </mxCell>
        <mxCell id="MIbKjhBUD7mymWlkARDE-35" value="" style="endArrow=classic;html=1;rounded=0;" edge="1" parent="1" source="MIbKjhBUD7mymWlkARDE-11" target="MIbKjhBUD7mymWlkARDE-18">
          <mxGeometry width="50" height="50" relative="1" as="geometry">
            <mxPoint x="130" y="585" as="sourcePoint" />
            <mxPoint x="180" y="535" as="targetPoint" />
          </mxGeometry>
        </mxCell>
        <mxCell id="MIbKjhBUD7mymWlkARDE-36" value="" style="endArrow=classic;html=1;rounded=0;" edge="1" parent="1" source="MIbKjhBUD7mymWlkARDE-11" target="MIbKjhBUD7mymWlkARDE-19">
          <mxGeometry width="50" height="50" relative="1" as="geometry">
            <mxPoint x="250" y="675" as="sourcePoint" />
            <mxPoint x="300" y="625" as="targetPoint" />
          </mxGeometry>
        </mxCell>
        <mxCell id="MIbKjhBUD7mymWlkARDE-37" value="" style="endArrow=classic;html=1;rounded=0;" edge="1" parent="1" source="MIbKjhBUD7mymWlkARDE-11" target="MIbKjhBUD7mymWlkARDE-20">
          <mxGeometry width="50" height="50" relative="1" as="geometry">
            <mxPoint x="290" y="700" as="sourcePoint" />
            <mxPoint x="340" y="650" as="targetPoint" />
          </mxGeometry>
        </mxCell>
        <mxCell id="MIbKjhBUD7mymWlkARDE-38" value="" style="endArrow=classic;html=1;rounded=0;" edge="1" parent="1" source="MIbKjhBUD7mymWlkARDE-6" target="MIbKjhBUD7mymWlkARDE-18">
          <mxGeometry width="50" height="50" relative="1" as="geometry">
            <mxPoint x="80" y="580" as="sourcePoint" />
            <mxPoint x="130" y="530" as="targetPoint" />
          </mxGeometry>
        </mxCell>
        <mxCell id="MIbKjhBUD7mymWlkARDE-39" value="" style="endArrow=classic;html=1;rounded=0;" edge="1" parent="1" source="MIbKjhBUD7mymWlkARDE-6" target="MIbKjhBUD7mymWlkARDE-19">
          <mxGeometry width="50" height="50" relative="1" as="geometry">
            <mxPoint x="140" y="550" as="sourcePoint" />
            <mxPoint x="190" y="500" as="targetPoint" />
          </mxGeometry>
        </mxCell>
        <mxCell id="MIbKjhBUD7mymWlkARDE-40" value="" style="endArrow=classic;html=1;rounded=0;" edge="1" parent="1" source="MIbKjhBUD7mymWlkARDE-6" target="MIbKjhBUD7mymWlkARDE-20">
          <mxGeometry width="50" height="50" relative="1" as="geometry">
            <mxPoint x="70" y="515" as="sourcePoint" />
            <mxPoint x="120" y="465" as="targetPoint" />
          </mxGeometry>
        </mxCell>
        <mxCell id="MIbKjhBUD7mymWlkARDE-41" value="Crear producto" style="ellipse;whiteSpace=wrap;html=1;" vertex="1" parent="1">
          <mxGeometry x="414" y="630" width="120" height="40" as="geometry" />
        </mxCell>
        <mxCell id="MIbKjhBUD7mymWlkARDE-42" value="Ver productos" style="ellipse;whiteSpace=wrap;html=1;" vertex="1" parent="1">
          <mxGeometry x="230" y="680" width="120" height="40" as="geometry" />
        </mxCell>
        <mxCell id="MIbKjhBUD7mymWlkARDE-43" value="Editar producto" style="ellipse;whiteSpace=wrap;html=1;" vertex="1" parent="1">
          <mxGeometry x="414" y="680" width="120" height="40" as="geometry" />
        </mxCell>
        <mxCell id="MIbKjhBUD7mymWlkARDE-44" value="Eliminar producto" style="ellipse;whiteSpace=wrap;html=1;" vertex="1" parent="1">
          <mxGeometry x="414" y="730" width="120" height="40" as="geometry" />
        </mxCell>
        <mxCell id="MIbKjhBUD7mymWlkARDE-45" value="Iniciar sesion como administrador" style="ellipse;whiteSpace=wrap;html=1;" vertex="1" parent="1">
          <mxGeometry x="620" y="750" width="120" height="40" as="geometry" />
        </mxCell>
        <mxCell id="MIbKjhBUD7mymWlkARDE-46" value="&amp;lt;&amp;lt;Extends&amp;gt;&amp;gt;" style="endArrow=open;endSize=12;dashed=1;html=1;rounded=0;" edge="1" parent="1" source="MIbKjhBUD7mymWlkARDE-44" target="MIbKjhBUD7mymWlkARDE-42">
          <mxGeometry width="160" relative="1" as="geometry">
            <mxPoint x="385" y="770" as="sourcePoint" />
            <mxPoint x="265" y="770" as="targetPoint" />
            <mxPoint as="offset" />
          </mxGeometry>
        </mxCell>
        <mxCell id="MIbKjhBUD7mymWlkARDE-47" value="&amp;lt;&amp;lt;Extends&amp;gt;&amp;gt;" style="endArrow=open;endSize=12;dashed=1;html=1;rounded=0;" edge="1" parent="1" source="MIbKjhBUD7mymWlkARDE-43" target="MIbKjhBUD7mymWlkARDE-42">
          <mxGeometry width="160" relative="1" as="geometry">
            <mxPoint x="400" y="780" as="sourcePoint" />
            <mxPoint x="280" y="780" as="targetPoint" />
            <mxPoint as="offset" />
          </mxGeometry>
        </mxCell>
        <mxCell id="MIbKjhBUD7mymWlkARDE-48" value="&amp;lt;&amp;lt;Extends&amp;gt;&amp;gt;" style="endArrow=open;endSize=12;dashed=1;html=1;rounded=0;" edge="1" parent="1" source="MIbKjhBUD7mymWlkARDE-41" target="MIbKjhBUD7mymWlkARDE-42">
          <mxGeometry width="160" relative="1" as="geometry">
            <mxPoint x="380" y="760" as="sourcePoint" />
            <mxPoint x="260" y="760" as="targetPoint" />
            <mxPoint as="offset" />
          </mxGeometry>
        </mxCell>
        <mxCell id="MIbKjhBUD7mymWlkARDE-49" value="&amp;lt;&amp;lt;Include&amp;gt;&amp;gt;" style="endArrow=open;endSize=12;dashed=1;html=1;rounded=0;" edge="1" parent="1" source="MIbKjhBUD7mymWlkARDE-45" target="MIbKjhBUD7mymWlkARDE-44">
          <mxGeometry x="-0.2162" width="160" relative="1" as="geometry">
            <mxPoint x="560" y="740" as="sourcePoint" />
            <mxPoint x="560" y="814" as="targetPoint" />
            <mxPoint as="offset" />
          </mxGeometry>
        </mxCell>
        <mxCell id="MIbKjhBUD7mymWlkARDE-50" value="&amp;lt;&amp;lt;Include&amp;gt;&amp;gt;" style="endArrow=open;endSize=12;dashed=1;html=1;rounded=0;" edge="1" parent="1" source="MIbKjhBUD7mymWlkARDE-45" target="MIbKjhBUD7mymWlkARDE-43">
          <mxGeometry x="-0.2162" width="160" relative="1" as="geometry">
            <mxPoint x="560" y="606" as="sourcePoint" />
            <mxPoint x="560" y="680" as="targetPoint" />
            <mxPoint as="offset" />
          </mxGeometry>
        </mxCell>
        <mxCell id="MIbKjhBUD7mymWlkARDE-51" value="&amp;lt;&amp;lt;Include&amp;gt;&amp;gt;" style="endArrow=open;endSize=12;dashed=1;html=1;rounded=0;" edge="1" parent="1" source="MIbKjhBUD7mymWlkARDE-45" target="MIbKjhBUD7mymWlkARDE-41">
          <mxGeometry x="-0.0306" y="-2" width="160" relative="1" as="geometry">
            <mxPoint x="569.17" y="596" as="sourcePoint" />
            <mxPoint x="569.17" y="670" as="targetPoint" />
            <mxPoint y="1" as="offset" />
          </mxGeometry>
        </mxCell>
        <mxCell id="MIbKjhBUD7mymWlkARDE-52" value="Registrar usuario" style="ellipse;whiteSpace=wrap;html=1;" vertex="1" parent="1">
          <mxGeometry x="414" y="780" width="120" height="40" as="geometry" />
        </mxCell>
        <mxCell id="MIbKjhBUD7mymWlkARDE-53" value="Ver usuarios" style="ellipse;whiteSpace=wrap;html=1;" vertex="1" parent="1">
          <mxGeometry x="230" y="830" width="120" height="40" as="geometry" />
        </mxCell>
        <mxCell id="MIbKjhBUD7mymWlkARDE-54" value="Editar usuario" style="ellipse;whiteSpace=wrap;html=1;" vertex="1" parent="1">
          <mxGeometry x="414" y="830" width="120" height="40" as="geometry" />
        </mxCell>
        <mxCell id="MIbKjhBUD7mymWlkARDE-55" value="Eliminar usuario" style="ellipse;whiteSpace=wrap;html=1;" vertex="1" parent="1">
          <mxGeometry x="414" y="880" width="120" height="40" as="geometry" />
        </mxCell>
        <mxCell id="MIbKjhBUD7mymWlkARDE-57" value="&amp;lt;&amp;lt;Extends&amp;gt;&amp;gt;" style="endArrow=open;endSize=12;dashed=1;html=1;rounded=0;" edge="1" parent="1" source="MIbKjhBUD7mymWlkARDE-55" target="MIbKjhBUD7mymWlkARDE-53">
          <mxGeometry width="160" relative="1" as="geometry">
            <mxPoint x="385" y="920" as="sourcePoint" />
            <mxPoint x="265" y="920" as="targetPoint" />
            <mxPoint as="offset" />
          </mxGeometry>
        </mxCell>
        <mxCell id="MIbKjhBUD7mymWlkARDE-58" value="&amp;lt;&amp;lt;Extends&amp;gt;&amp;gt;" style="endArrow=open;endSize=12;dashed=1;html=1;rounded=0;" edge="1" parent="1" source="MIbKjhBUD7mymWlkARDE-54" target="MIbKjhBUD7mymWlkARDE-53">
          <mxGeometry width="160" relative="1" as="geometry">
            <mxPoint x="400" y="930" as="sourcePoint" />
            <mxPoint x="280" y="930" as="targetPoint" />
            <mxPoint as="offset" />
          </mxGeometry>
        </mxCell>
        <mxCell id="MIbKjhBUD7mymWlkARDE-59" value="&amp;lt;&amp;lt;Extends&amp;gt;&amp;gt;" style="endArrow=open;endSize=12;dashed=1;html=1;rounded=0;" edge="1" parent="1" source="MIbKjhBUD7mymWlkARDE-52" target="MIbKjhBUD7mymWlkARDE-53">
          <mxGeometry width="160" relative="1" as="geometry">
            <mxPoint x="380" y="910" as="sourcePoint" />
            <mxPoint x="260" y="910" as="targetPoint" />
            <mxPoint as="offset" />
          </mxGeometry>
        </mxCell>
        <mxCell id="MIbKjhBUD7mymWlkARDE-63" value="&amp;lt;&amp;lt;Include&amp;gt;&amp;gt;" style="endArrow=open;endSize=12;dashed=1;html=1;rounded=0;" edge="1" parent="1" source="MIbKjhBUD7mymWlkARDE-45" target="MIbKjhBUD7mymWlkARDE-52">
          <mxGeometry x="-0.2162" width="160" relative="1" as="geometry">
            <mxPoint x="610" y="830" as="sourcePoint" />
            <mxPoint x="610" y="904" as="targetPoint" />
            <mxPoint as="offset" />
          </mxGeometry>
        </mxCell>
        <mxCell id="MIbKjhBUD7mymWlkARDE-64" value="&amp;lt;&amp;lt;Include&amp;gt;&amp;gt;" style="endArrow=open;endSize=12;dashed=1;html=1;rounded=0;" edge="1" parent="1" source="MIbKjhBUD7mymWlkARDE-45" target="MIbKjhBUD7mymWlkARDE-54">
          <mxGeometry x="-0.2162" width="160" relative="1" as="geometry">
            <mxPoint x="610" y="813" as="sourcePoint" />
            <mxPoint x="610" y="887" as="targetPoint" />
            <mxPoint as="offset" />
          </mxGeometry>
        </mxCell>
        <mxCell id="MIbKjhBUD7mymWlkARDE-65" value="&amp;lt;&amp;lt;Include&amp;gt;&amp;gt;" style="endArrow=open;endSize=12;dashed=1;html=1;rounded=0;" edge="1" parent="1" source="MIbKjhBUD7mymWlkARDE-45" target="MIbKjhBUD7mymWlkARDE-55">
          <mxGeometry x="-0.2162" width="160" relative="1" as="geometry">
            <mxPoint x="610" y="863" as="sourcePoint" />
            <mxPoint x="610" y="937" as="targetPoint" />
            <mxPoint as="offset" />
          </mxGeometry>
        </mxCell>
        <mxCell id="MIbKjhBUD7mymWlkARDE-66" value="" style="endArrow=classic;html=1;rounded=0;" edge="1" parent="1" source="MIbKjhBUD7mymWlkARDE-11" target="MIbKjhBUD7mymWlkARDE-42">
          <mxGeometry width="50" height="50" relative="1" as="geometry">
            <mxPoint x="70" y="810" as="sourcePoint" />
            <mxPoint x="120" y="760" as="targetPoint" />
          </mxGeometry>
        </mxCell>
        <mxCell id="MIbKjhBUD7mymWlkARDE-67" value="" style="endArrow=classic;html=1;rounded=0;" edge="1" parent="1" source="MIbKjhBUD7mymWlkARDE-11" target="MIbKjhBUD7mymWlkARDE-53">
          <mxGeometry width="50" height="50" relative="1" as="geometry">
            <mxPoint x="133" y="739" as="sourcePoint" />
            <mxPoint x="230" y="770" as="targetPoint" />
          </mxGeometry>
        </mxCell>
      </root>
    </mxGraphModel>
  </diagram>
</mxfile>
